<svg xmlns="http://www.w3.org/2000/svg" viewBox="0 0 1520 960" font-family="'Segoe UI', Roboto, Arial, sans-serif">
<rect x="0" y="0" width="1520" height="960" rx="18" fill="#0f172a"/>
<text x="760.0" y="44" text-anchor="middle" fill="#ffffff" font-size="26" font-weight="700">Navegación del Sistema · ERP de Mantenimiento de Comunicaciones</text>
<text x="760.0" y="68" text-anchor="middle" fill="#94a3b8" font-size="14">UM Corona — Yauricocha · una sola app web (Vercel) con barra lateral de pestañas</text>
<rect x="44" y="84" width="1432" height="56" rx="10" fill="#0b1220" stroke="#334155"/>
<rect x="58" y="99" width="58" height="26" rx="6" fill="#1f2937"/>
<text x="87" y="117" text-anchor="middle" fill="#94a3b8" font-size="12" font-weight="700">URL</text>
<text x="130" y="111" fill="#7dd3fc" font-size="14" font-family="Consolas, monospace">app-erp.vercel.app/?tab=mantenimiento&amp;sub=CCTV&amp;tipo=Incidente</text>
<text x="130" y="130" fill="#94a3b8" font-size="12.5">La pestaña activa y los filtros quedan en el enlace → al recargar o compartir, se conserva el estado.</text>
<rect x="44" y="152" width="1432" height="40" rx="10" fill="#172033" stroke="#334155"/>
<text x="60" y="177" fill="#e2e8f0" font-size="13.5"><tspan fill="#facc15" font-weight="700">Filtros globales:</tspan>  Subsistema · Tipo · Origen   →   aplican a Resumen, Productividad, Inventario, Mantenimiento y Estadísticas.</text>
<text x="44" y="202" fill="#94a3b8" font-size="13" font-weight="700">MÓDULOS / PESTAÑAS  (clic en la barra lateral)</text>
<rect x="44" y="210" width="344" height="270" rx="12" fill="#1e293b" stroke="#334155"/>
<rect x="44" y="210" width="344" height="42" rx="12" fill="#2dd4bf"/>
<rect x="44" y="232" width="344" height="20" fill="#2dd4bf"/>
<circle cx="66" cy="231" r="6" fill="#ffffff" opacity="0.85"/>
<text x="84" y="237" fill="#0b1220" font-size="16.5" font-weight="800">Resumen</text>
<circle cx="64" cy="278" r="3" fill="#2dd4bf"/>
<text x="76" y="282" fill="#e2e8f0" font-size="13.5">KPIs: tareas · HH · insumos · personal</text>
<circle cx="64" cy="308" r="3" fill="#2dd4bf"/>
<text x="76" y="312" fill="#e2e8f0" font-size="13.5">Tendencia mensual (Incid. / Requer.)</text>
<circle cx="64" cy="338" r="3" fill="#2dd4bf"/>
<text x="76" y="342" fill="#e2e8f0" font-size="13.5">Tareas por subsistema</text>
<rect x="412" y="210" width="344" height="270" rx="12" fill="#1e293b" stroke="#334155"/>
<rect x="412" y="210" width="344" height="42" rx="12" fill="#8b5cf6"/>
<rect x="412" y="232" width="344" height="20" fill="#8b5cf6"/>
<circle cx="434" cy="231" r="6" fill="#ffffff" opacity="0.85"/>
<text x="452" y="237" fill="#0b1220" font-size="16.5" font-weight="800">Productividad</text>
<rect x="710" y="222" width="34" height="19" rx="5" fill="#0b1220" opacity="0.65"/>
<text x="727" y="235.5" text-anchor="middle" fill="#fff" font-size="11" font-weight="700">ML</text>
<circle cx="432" cy="278" r="3" fill="#8b5cf6"/>
<text x="444" y="282" fill="#e2e8f0" font-size="13.5">Horas-Hombre por causa raíz</text>
<circle cx="432" cy="308" r="3" fill="#8b5cf6"/>
<text x="444" y="312" fill="#e2e8f0" font-size="13.5">HH por nivel · Pareto HH (80/20)</text>
<circle cx="432" cy="338" r="3" fill="#8b5cf6"/>
<text x="444" y="342" fill="#e2e8f0" font-size="13.5">Proyección de carga de trabajo  [ML]</text>
<rect x="780" y="210" width="344" height="270" rx="12" fill="#1e293b" stroke="#334155"/>
<rect x="780" y="210" width="344" height="42" rx="12" fill="#3b82f6"/>
<rect x="780" y="232" width="344" height="20" fill="#3b82f6"/>
<circle cx="802" cy="231" r="6" fill="#ffffff" opacity="0.85"/>
<text x="820" y="237" fill="#0b1220" font-size="16.5" font-weight="800">Inventario</text>
<rect x="1078" y="222" width="34" height="19" rx="5" fill="#0b1220" opacity="0.65"/>
<text x="1095" y="235.5" text-anchor="middle" fill="#fff" font-size="11" font-weight="700">ML</text>
<circle cx="800" cy="278" r="3" fill="#3b82f6"/>
<text x="812" y="282" fill="#e2e8f0" font-size="13.5">Materiales por actividad</text>
<circle cx="800" cy="308" r="3" fill="#3b82f6"/>
<text x="812" y="312" fill="#e2e8f0" font-size="13.5">Top insumos · Mermas · Pareto insumos</text>
<circle cx="800" cy="338" r="3" fill="#3b82f6"/>
<text x="812" y="342" fill="#e2e8f0" font-size="13.5">Predicción de demanda de insumos  [ML]</text>
<rect x="1148" y="210" width="344" height="270" rx="12" fill="#1e293b" stroke="#334155"/>
<rect x="1148" y="210" width="344" height="42" rx="12" fill="#f59e0b"/>
<rect x="1148" y="232" width="344" height="20" fill="#f59e0b"/>
<circle cx="1170" cy="231" r="6" fill="#ffffff" opacity="0.85"/>
<text x="1188" y="237" fill="#0b1220" font-size="16.5" font-weight="800">Mantenimiento</text>
<rect x="1446" y="222" width="34" height="19" rx="5" fill="#0b1220" opacity="0.65"/>
<text x="1463" y="235.5" text-anchor="middle" fill="#fff" font-size="11" font-weight="700">ML</text>
<circle cx="1168" cy="278" r="3" fill="#f59e0b"/>
<text x="1180" y="282" fill="#e2e8f0" font-size="13.5">Causa raíz → Detalle</text>
<circle cx="1168" cy="308" r="3" fill="#f59e0b"/>
<text x="1180" y="312" fill="#e2e8f0" font-size="13.5">Zonas calientes · Pareto ubicaciones</text>
<circle cx="1168" cy="338" r="3" fill="#f59e0b"/>
<text x="1180" y="342" fill="#e2e8f0" font-size="13.5">Riesgo de falla por zona  [ML]</text>
<circle cx="1168" cy="368" r="3" fill="#f59e0b"/>
<text x="1180" y="372" fill="#e2e8f0" font-size="13.5">Cumplimiento ANS (SLA)</text>
<rect x="44" y="508" width="344" height="270" rx="12" fill="#1e293b" stroke="#334155"/>
<rect x="44" y="508" width="344" height="42" rx="12" fill="#6366f1"/>
<rect x="44" y="530" width="344" height="20" fill="#6366f1"/>
<circle cx="66" cy="529" r="6" fill="#ffffff" opacity="0.85"/>
<text x="84" y="535" fill="#0b1220" font-size="16.5" font-weight="800">Estadísticas</text>
<circle cx="64" cy="576" r="3" fill="#6366f1"/>
<text x="76" y="580" fill="#e2e8f0" font-size="13.5">Dispersión · Boxplots · Histograma</text>
<circle cx="64" cy="606" r="3" fill="#6366f1"/>
<text x="76" y="610" fill="#e2e8f0" font-size="13.5">Pareto de causas · Mapa de calor</text>
<circle cx="64" cy="636" r="3" fill="#6366f1"/>
<text x="76" y="640" fill="#e2e8f0" font-size="13.5">% Incid/Requer · Radar subsistema</text>
<rect x="412" y="508" width="344" height="270" rx="12" fill="#1e293b" stroke="#334155"/>
<rect x="412" y="508" width="344" height="42" rx="12" fill="#10b981"/>
<rect x="412" y="530" width="344" height="20" fill="#10b981"/>
<circle cx="434" cy="529" r="6" fill="#ffffff" opacity="0.85"/>
<text x="452" y="535" fill="#0b1220" font-size="16.5" font-weight="800">Ingesta</text>
<rect x="710" y="520" width="34" height="19" rx="5" fill="#0b1220" opacity="0.65"/>
<text x="727" y="533.5" text-anchor="middle" fill="#fff" font-size="11" font-weight="700">ML</text>
<circle cx="432" cy="576" r="3" fill="#10b981"/>
<text x="444" y="580" fill="#e2e8f0" font-size="13.5">1) Arrastrar el Excel del mes</text>
<circle cx="432" cy="606" r="3" fill="#10b981"/>
<text x="444" y="610" fill="#e2e8f0" font-size="13.5">2) Validar (errores y sugerencias)</text>
<circle cx="432" cy="636" r="3" fill="#10b981"/>
<text x="444" y="640" fill="#e2e8f0" font-size="13.5">3) Insertar → Supabase (idempotente)</text>
<rect x="780" y="508" width="344" height="270" rx="12" fill="#1e293b" stroke="#334155"/>
<rect x="780" y="508" width="344" height="42" rx="12" fill="#64748b"/>
<rect x="780" y="530" width="344" height="20" fill="#64748b"/>
<circle cx="802" cy="529" r="6" fill="#ffffff" opacity="0.85"/>
<text x="820" y="535" fill="#0b1220" font-size="16.5" font-weight="800">Tareas</text>
<circle cx="800" cy="576" r="3" fill="#64748b"/>
<text x="812" y="580" fill="#e2e8f0" font-size="13.5">Listado de operaciones</text>
<circle cx="800" cy="606" r="3" fill="#64748b"/>
<text x="812" y="610" fill="#e2e8f0" font-size="13.5">Buscar y filtrar</text>
<circle cx="800" cy="636" r="3" fill="#64748b"/>
<text x="812" y="640" fill="#e2e8f0" font-size="13.5">Detalle por ticket</text>
<rect x="1148" y="508" width="344" height="270" rx="12" fill="#1e293b" stroke="#334155"/>
<rect x="1148" y="508" width="344" height="42" rx="12" fill="#f43f5e"/>
<rect x="1148" y="530" width="344" height="20" fill="#f43f5e"/>
<circle cx="1170" cy="529" r="6" fill="#ffffff" opacity="0.85"/>
<text x="1188" y="535" fill="#0b1220" font-size="16.5" font-weight="800">Exportar a Excel</text>
<rect x="1446" y="520" width="34" height="19" rx="5" fill="#0b1220" opacity="0.65"/>
<text x="1463" y="533.5" text-anchor="middle" fill="#fff" font-size="11" font-weight="700">ML</text>
<circle cx="1168" cy="576" r="3" fill="#f43f5e"/>
<text x="1180" y="580" fill="#e2e8f0" font-size="13.5">Botón → archivo .xlsx</text>
<circle cx="1168" cy="606" r="3" fill="#f43f5e"/>
<text x="1180" y="610" fill="#e2e8f0" font-size="13.5">Datos + hojas de agregación</text>
<circle cx="1168" cy="636" r="3" fill="#f43f5e"/>
<text x="1180" y="640" fill="#e2e8f0" font-size="13.5">+ Tablas dinámicas  [ML]</text>
<text x="44" y="808" fill="#94a3b8" font-size="13" font-weight="700">CAPA DE DATOS  (server-side, sin instalar nada el usuario)</text>
<rect x="44" y="814" width="700" height="64" rx="10" fill="#16261f" stroke="#1f7a52"/>
<text x="62" y="841" fill="#34d399" font-size="15" font-weight="700">Supabase · PostgreSQL</text>
<text x="62" y="862" fill="#94a3b8" font-size="12.5">Histórico de tareas, insumos y catálogos. Lectura del tablero y escritura de la Ingesta.</text>
<rect x="768" y="814" width="708" height="64" rx="10" fill="#241a26" stroke="#7c3aed"/>
<text x="786" y="841" fill="#a78bfa" font-size="15" font-weight="700">Render · Microservicio FastAPI  [ML]</text>
<text x="786" y="862" fill="#94a3b8" font-size="12.5">Predicciones (Holt-Winters), validación/commit de Ingesta y generación del Export.</text>
<rect x="44" y="888" width="22" height="16" rx="4" fill="#0b1220" opacity="0.65"/>
<text x="55" y="900" text-anchor="middle" fill="#fff" font-size="10" font-weight="700">ML</text>
<text x="78" y="901" fill="#94a3b8" font-size="12.5">= la función usa el microservicio (predicción / ingesta / export). El resto se sirve directo desde la base de datos.</text>
</svg>